<?xml version="1.0" encoding="UTF-8"?><svg id="Calque_1" xmlns="http://www.w3.org/2000/svg" viewBox="0 0 213.18 185.48"><defs><style>.cls-1{fill:#383838;}</style></defs><path class="cls-1" d="m204.47,7.58c-2.66,6.05-6.44,11.5-9.63,17.26-5.11,9.24-10.59,18.28-15.88,27.43-5.13,8.87-10.19,17.78-15.32,26.65-8.46,14.63-16.93,29.24-25.42,43.85-4.42,7.61-8.92,15.19-13.31,22.82-6.12,10.65-12.18,21.33-18.45,32.32-5.12-8.82-10.07-17.36-15.02-25.9-5.96-10.27-11.93-20.54-17.87-30.82-6.59-11.4-13.15-22.82-19.73-34.23-5.7-9.88-11.51-19.71-17.1-29.66-7.68-13.64-16.04-26.89-23.33-40.76-1.57-2.99-4.27-5.38-4.7-8.97h39.15c.29.78.47,1.61.88,2.32,3.56,6.15,7.18,12.25,10.74,18.4,7.36,12.75,14.68,25.54,22.04,38.29,7.77,13.48,15.59,26.94,23.35,40.42,1.45,2.52,1.84,2.6,3.4-.03,2.23-3.78,4.35-7.62,6.54-11.42,6.73-11.67,13.47-23.34,20.2-35.01,6.74-11.67,13.5-23.32,20.2-35.01,3.42-5.96,7.24-11.7,10.11-17.97h39.15Z"/><path class="cls-1" d="m165.32,8.49l-.69-.32c-2.84,6.2-6.64,11.92-10.08,17.91-6.7,11.69-13.46,23.34-20.2,35.01-6.74,11.67-13.47,23.34-20.2,35.01-2.2,3.81-4.31,7.65-6.54,11.41-.38.64-.68,1.1-.9,1.35-.11.13-.19.2-.23.22h-.02s0,0,0,0l.07.16v-.17s-.07.01-.07.01l.07.16v-.17.21l.07-.2s-.04-.01-.07-.01v.21l.07-.2-.02.07.03-.07h0s-.02.07-.02.07l.03-.07-.03-.02c-.06-.04-.22-.2-.4-.46-.18-.26-.4-.62-.66-1.07-7.77-13.49-15.58-26.95-23.35-40.42-7.36-12.76-14.67-25.54-22.04-38.29-3.55-6.15-7.18-12.26-10.74-18.4-.16-.28-.3-.62-.42-1-.13-.37-.25-.78-.4-1.21l-.71.27v.76h35.99v-.76l-.67.37c7.3,13.12,15.38,25.75,22.28,39.07l.43.84.73-.6c.17-.14.33-.25.51-.38.09-.07.18-.14.28-.23.1-.09.2-.22.28-.37,4.31-8.26,9.51-16.07,13.99-24.34,1.25-2.31,2.69-4.54,4.06-6.84,1.37-2.3,2.68-4.67,3.65-7.25l-.71-.27v.76h36.63v-.76l-.69-.32.69.32v-.76c-12.21,0-24.42,0-36.63,0h-.53l-.19.49c-.92,2.45-2.18,4.74-3.53,7.01-1.36,2.27-2.81,4.52-4.09,6.9-4.43,8.19-9.64,16-14,24.36l.14.07-.12-.1v.02s.12.07.12.07l-.12-.1h0s0,0,0,0h0s0,0,0,0h0s-.08.07-.2.15c-.13.09-.3.21-.5.37l.49.59.68-.35c-6.94-13.4-15.03-26.05-22.3-39.11l-.22-.39h-.45c-12,0-24,0-35.99,0h-1.1l.38,1.03c.13.35.25.75.39,1.16.14.41.3.85.55,1.27,3.56,6.15,7.19,12.25,10.73,18.4,7.36,12.75,14.68,25.53,22.04,38.29,7.78,13.48,15.59,26.94,23.35,40.42.37.65.68,1.15,1,1.54.16.2.33.37.54.51.21.14.48.25.78.25.29,0,.56-.1.77-.24.32-.21.55-.48.81-.82.25-.34.51-.75.8-1.25,2.24-3.79,4.36-7.64,6.55-11.43,6.73-11.67,13.47-23.34,20.2-35.01,6.73-11.67,13.5-23.32,20.2-35.01,3.4-5.93,7.23-11.69,10.14-18.03l.49-1.08h-1.19v.76Z"/></svg>