<?xml version="1.0" encoding="UTF-8"?><svg id="Calque_1" xmlns="http://www.w3.org/2000/svg" viewBox="0 0 189.94 189.94"><defs><style>.cls-1{fill:#383838;}</style></defs><path class="cls-1" d="m173.04,11.22H16.9c-3.14,0-5.68,2.54-5.68,5.68v156.14c0,3.14,2.54,5.68,5.68,5.68h156.14c3.14,0,5.68-2.54,5.68-5.68V16.9c0-3.14-2.54-5.68-5.68-5.68Zm-70.6,130.64c0,16.3-9.55,23.72-23.5,23.72-12.6,0-19.9-6.52-23.61-14.38l12.81-7.76c2.47,4.39,4.72,8.1,10.13,8.1s8.43-2.02,8.43-9.89v-53.52h15.74v53.73Zm37.19,23.75c-14.62,0-24.06-6.97-28.68-16.09l12.79-7.43c3.38,5.51,7.76,9.56,15.53,9.56,6.52,0,10.69-3.26,10.69-7.76,0-5.4-4.28-7.31-11.46-10.45l-3.93-1.69c-11.36-4.84-18.9-10.9-18.9-23.72,0-11.8,8.99-20.79,23.05-20.79,10,0,17.2,3.48,22.38,12.6l-12.26,7.87c-2.7-4.84-5.61-6.75-10.13-6.75s-7.53,2.93-7.53,6.75c0,4.72,2.93,6.63,9.68,9.56l3.93,1.68c13.37,5.74,20.93,11.58,20.93,24.73,0,14.17-11.13,21.93-26.08,21.93Z"/></svg>