<?xml version="1.0" encoding="UTF-8"?><svg id="Calque_1" xmlns="http://www.w3.org/2000/svg" viewBox="0 0 181.01 181.01"><defs><style>.cls-1{fill:#383838;}</style></defs><path class="cls-1" d="m23.27,9.98h134.07c.65.37,1.39.33,2.09.51,6.56,1.77,11.6,7.73,11.6,15.09,0,43.28,0,86.55.01,129.83,0,1.35-.19,2.66-.52,3.94-1.71,6.78-8.04,11.67-15.03,11.67-43.31,0-86.62,0-129.93,0-1.44,0-2.83-.16-4.21-.59-5.45-1.72-9.04-5.29-10.75-10.74-.22-.71-.41-1.44-.61-2.16V23.27c.06-.07.16-.13.18-.21,1.33-6.41,5.11-10.6,11.36-12.55.58-.18,1.22-.14,1.74-.53Zm80.08,89.18c.02-4.02.01-8.05.06-12.07,0-.77-.44-.67-.91-.67-18.15,0-36.3,0-54.44-.02-.84,0-.99.29-.98,1.04.03,3.62.04,7.25,0,10.87-.01.86.26,1.05,1.08,1.05,5.94-.03,11.87,0,17.81-.04,1.02,0,1.26.25,1.26,1.26-.03,18.38-.02,36.77-.04,55.15,0,.91.21,1.19,1.15,1.18,4.53-.05,9.06-.02,13.59-.02q1.31,0,1.31-1.28c0-18.25,0-36.5,0-54.75q0-1.51,1.46-1.51c6.17-.01,12.34-.03,18.51-.04.12.03.18-.02.16-.14Zm6.31,38.98c0,5.09.02,9.91-.02,14.74,0,.75.23,1.12.9,1.43,4.6,2.15,9.52,3.06,14.52,3.38,3.4.21,6.82.22,10.23-.13,3.41-.35,6.75-.99,9.95-2.23,5.16-2.01,9.19-5.31,11.2-10.59,1.32-3.45,1.56-7.07,1.14-10.79-.45-4.04-1.97-7.5-4.75-10.43-2.24-2.37-4.94-4.1-7.79-5.63-3.51-1.9-7.28-3.24-10.86-4.99-2.35-1.15-4.62-2.42-6.45-4.37-2.66-2.83-1.82-6.74.82-8.69,1.04-.76,2.17-1.34,3.41-1.67,2.65-.7,5.32-.9,8.08-.67,3.2.27,6.28.91,9.29,1.98,1.86.66,3.58,1.61,5.38,2.74,0-.49,0-.81,0-1.14,0-4.16-.03-8.32.03-12.48.01-.88-.31-1.19-1.08-1.44-4.69-1.55-9.54-2.05-14.43-2.28-3.71-.17-7.4.12-11.05.8-4.25.79-8.26,2.23-11.65,4.96-5.93,4.76-8.05,11.01-6.91,18.47.73,4.79,3.11,8.59,6.79,11.66,3,2.5,6.43,4.22,9.99,5.73,3.24,1.37,6.52,2.65,9.52,4.51,1.52.94,2.92,2.04,3.98,3.5,1.74,2.4,1.55,6.13-.93,8.13-.85.68-1.77,1.23-2.79,1.57-3.58,1.19-7.2,1.44-10.96.89-3.87-.56-7.44-1.82-10.84-3.69-1.61-.89-3.09-1.97-4.73-3.27Z"/></svg>