<?xml version="1.0" encoding="UTF-8"?><svg id="Calque_1" xmlns="http://www.w3.org/2000/svg" viewBox="0 0 267.28 198.87"><defs><style>.cls-1{fill:#383838;}</style></defs><path class="cls-1" d="m99.56,186.57c-.43.02-.86.06-1.28.06-22.67,0-45.35,0-68.02.01-1.93,0-3.83-.26-5.58-.98-2.37-.99-4.41-2.52-5.97-4.63-1.48-2-2.42-4.24-2.77-6.67-.24-1.68-.02-3.4.38-5.08.34-1.43.96-2.74,1.69-4.01,9.38-16.25,18.76-32.5,28.14-48.75,18.75-32.48,37.5-64.95,56.24-97.43,1.86-3.22,4.5-5.47,8.03-6.62,2.54-.83,5.14-.92,7.72-.23,3.83,1.04,6.77,3.27,8.77,6.74,7.59,13.17,15.2,26.33,22.8,39.5.2.34.4.69.61,1.03.32-.18.4-.49.55-.74,2.08-3.59,4.15-7.18,6.23-10.77,2.35-4.06,5.84-6.47,10.48-7.14,1.49-.22,2.98-.11,4.48.19,4.48.87,7.58,3.47,9.82,7.35,22.44,38.89,44.9,77.77,67.36,116.65.67,1.16,1.25,2.37,1.62,3.65.5,1.74.77,3.53.51,5.36-.72,5.03-3.19,8.84-7.78,11.15-1.86.94-3.85,1.42-5.93,1.42-11.95.01-23.9,0-35.85,0-.31,0-.61-.03-.92-.05.77-.16,1.56-.21,2.33-.44,2.84-.85,5.24-2.36,7.11-4.67,1.16-1.42,1.95-3.02,2.53-4.76.44-1.33.43-2.71.69-4.06.34,0,.67-.02,1.01-.02,7.25,0,14.5,0,21.75,0,.32,0,.64-.03.98-.04-.37-.9-67.46-117.12-67.96-117.72-.16.27-.32.53-.48.8-3.25,5.64-6.51,11.27-9.76,16.91-.17.29-.36.57-.55.85-.5-.26-.64-.8-.89-1.23-2.17-3.73-4.3-7.48-6.48-11.21-.23-.39-.36-.9-.83-1.17-.1.14-.18.23-.24.34-2.14,3.71-4.27,7.44-6.43,11.14-.46.79-.82,1.64-1.46,2.32-.07-.34-.28-.61-.44-.91-3.62-6.28-7.24-12.56-10.87-18.83-5.21-9.02-10.41-18.03-15.62-27.05-.17-.3-.25-.68-.68-.85-28.15,48.76-56.28,97.49-84.4,146.22-.05.08-.07.17-.1.25l.03.08s.03.05.07.11h.98c18.37,0,36.75,0,55.12,0,.34,0,.68,0,1.01-.01.15.66.02,1.35.14,2.01.8,4.51,3.09,7.98,7.13,10.25,1.57.88,3.27,1.35,5.01,1.69Z"/><path class="cls-1" d="m213.53,172.65l-.47-.09c-.13.7-.2,1.4-.28,2.07-.08.67-.19,1.32-.39,1.93-.57,1.7-1.34,3.24-2.45,4.61-1.82,2.23-4.12,3.69-6.88,4.51-.7.21-1.47.26-2.29.43l.1.46-.02-.47c-.41.02-.8.05-1.17.05-16.23,0-32.45,0-48.68,0-16.62,0-33.25,0-49.87,0-.5,0-1.01-.04-1.55-.05l-.02.47.09-.46c-1.72-.34-3.37-.79-4.87-1.63-1.96-1.1-3.48-2.49-4.62-4.14-1.13-1.65-1.88-3.58-2.28-5.78-.05-.27-.05-.58-.05-.92,0-.34,0-.71-.09-1.11l-.46.1h.47c.02-1.25.19-2.5.49-3.71.31-1.25.97-2.4,1.65-3.58,17.42-30.16,34.83-60.33,52.24-90.5.08-.13.19-.29.29-.48.1-.19.2-.43.23-.71l-.47-.04.35.32c.7-.76,1.08-1.65,1.52-2.4,2.16-3.71,4.29-7.43,6.43-11.14.03-.05.1-.14.22-.3l-.38-.28-.24.41c.14.08.23.19.33.37.1.17.19.39.32.63,2.17,3.72,4.31,7.47,6.48,11.2.1.17.2.42.35.68.08.13.17.27.29.4.12.13.27.25.45.34l.22-.42-.47-.08c-.01.08-.02.15-.02.23,0,.3.11.55.22.74.11.19.22.33.28.44,7.88,13.67,15.77,27.33,23.66,40.99,9.53,16.51,19.06,33.01,28.6,49.51.8,1.38,1.43,2.82,1.82,4.35.25.96.25,2.03.45,3.15l.47-.08-.47-.09.47.09.47-.08c-.18-1-.17-2.1-.46-3.22-.42-1.63-1.09-3.14-1.92-4.59-9.54-16.5-19.07-33.01-28.6-49.51-7.89-13.66-15.78-27.32-23.66-40.99-.11-.19-.22-.33-.29-.45-.07-.12-.09-.19-.09-.26v-.06s.07-.34.07-.34l-.31-.16c-.07-.04-.13-.08-.19-.14-.08-.09-.16-.21-.24-.37-.08-.16-.16-.34-.27-.54-2.17-3.73-4.3-7.48-6.48-11.21-.09-.15-.18-.38-.32-.63-.14-.25-.35-.53-.68-.72l-.37-.21-.25.35c-.09.13-.18.22-.27.38-2.14,3.72-4.27,7.44-6.43,11.14-.48.82-.83,1.64-1.39,2.24l-.11.12v.16c-.02.1-.06.2-.13.34-.07.13-.17.28-.28.46-17.41,30.17-34.83,60.33-52.24,90.5-.68,1.18-1.4,2.41-1.75,3.83-.32,1.28-.49,2.6-.52,3.93v.06s.01.05.01.05c.06.27.07.57.07.91,0,.33,0,.7.06,1.09.41,2.31,1.21,4.37,2.43,6.15,1.22,1.78,2.86,3.27,4.93,4.43,1.63.92,3.39,1.39,5.15,1.74h.04s.04,0,.04,0c.51.02,1.04.06,1.58.06,16.62,0,33.25,0,49.87,0s32.45,0,48.68,0c.42,0,.83-.03,1.21-.05h.04s.04,0,.04,0c.73-.15,1.53-.2,2.37-.45,2.92-.87,5.41-2.44,7.35-4.82,1.2-1.47,2.02-3.13,2.61-4.91.24-.71.35-1.43.43-2.12.09-.69.15-1.36.27-2.01l.02-.09-.02-.09-.47.08Zm-14.1-.04l.41-.24c-16.39-28.39-32.69-56.63-49.02-84.92l-.37-.64-.43.61c-.06.08-.14.22-.27.43-1,1.65-4.53,7.7-9.27,15.88-7.11,12.27-16.93,29.3-24.99,43.34-4.03,7.02-7.62,13.28-10.21,17.82-1.3,2.27-2.34,4.11-3.07,5.4-.36.64-.65,1.15-.84,1.51-.1.18-.17.32-.23.42-.03.05-.05.09-.07.13l-.02.05s-.02.03-.03.1l-.15.59h99.38l-.41-.71-.41.24v-.47c-32.78,0-65.36,0-97.95,0v.47l.46.11-.37-.09.36.15s0-.01.02-.05l-.37-.09.36.15-.13-.05.12.06h0s-.13-.06-.13-.06l.12.06s.02-.05.05-.11c.13-.24.43-.78.87-1.58,3.36-5.99,15.06-26.35,26.06-45.43,5.5-9.54,10.83-18.76,14.86-25.7,2.01-3.47,3.7-6.37,4.93-8.46.61-1.04,1.11-1.88,1.47-2.49.18-.3.33-.55.44-.73.11-.18.19-.3.21-.33l-.39-.27-.41.24c16.33,28.29,32.63,56.53,49.02,84.92l.41-.24v-.47.47Z"/></svg>