<?xml version="1.0" encoding="UTF-8"?><svg id="Calque_1" xmlns="http://www.w3.org/2000/svg" xmlns:xlink="http://www.w3.org/1999/xlink" viewBox="0 0 109.26 172.53"><defs><style>.cls-1{fill:none;stroke:#fff;stroke-miterlimit:10;}.cls-2{fill:url(#Dégradé_sans_nom_5);}.cls-3{fill:url(#Dégradé_sans_nom_4);}</style><linearGradient id="Dégradé_sans_nom_4" x1="31.13" y1="12.96" x2="31.13" y2="167.84" gradientUnits="userSpaceOnUse"><stop offset=".1" stop-color="#1f5fff"/><stop offset=".96" stop-color="#42e47e"/></linearGradient><linearGradient id="Dégradé_sans_nom_5" x1="79.79" y1="14.2" x2="79.79" y2="169.08" gradientUnits="userSpaceOnUse"><stop offset=".13" stop-color="#1f5fff"/><stop offset=".96" stop-color="#42e47e"/></linearGradient></defs><g><g><path class="cls-1" d="m33.16,105.74h-4.21V38h4.21v67.74ZM8.9,12.37v149h20.05v-29.8h4.21v29.8h20.05V12.37H8.9Z"/><path class="cls-1" d="m102,48.33v-25.83h-24.4v-10.13h-20.19v149h19.5c14.78,0,25.09-12.52,25.09-28.61V52.97h-20.19v79.79c0,1.39-.52,2.78-1.2,2.78h-3.01V48.33h24.4Z"/></g><g><path class="cls-1" d="m33.13,105.72h-4.21V37.97h4.21v67.74ZM8.87,12.34v149h20.05v-29.8h4.21v29.8h20.05V12.34H8.87Z"/><path class="cls-1" d="m101.97,48.3v-25.83h-24.4v-10.13h-20.19v149h19.5c14.78,0,25.09-12.52,25.09-28.61V52.94h-20.19v79.79c0,1.39-.52,2.78-1.2,2.78h-3.01V48.3h24.4Z"/></g><g><path class="cls-1" d="m33.1,105.69h-4.21V37.95h4.21v67.74ZM8.84,12.32v149h20.05v-29.8h4.21v29.8h20.05V12.32H8.84Z"/><path class="cls-1" d="m101.94,48.28v-25.83h-24.4v-10.13h-20.19v149h19.5c14.78,0,25.09-12.52,25.09-28.61V52.92h-20.19v79.79c0,1.39-.52,2.78-1.2,2.78h-3.01V48.28h24.4Z"/></g><g><path class="cls-1" d="m33.06,105.67h-4.21V37.92h4.21v67.74ZM8.8,12.3v149h20.05v-29.8h4.21v29.8h20.05V12.3H8.8Z"/><path class="cls-1" d="m101.91,48.26v-25.83h-24.4v-10.13h-20.19v149h19.5c14.78,0,25.09-12.52,25.09-28.61V52.89h-20.19v79.79c0,1.39-.52,2.78-1.2,2.78h-3.01V48.26h24.4Z"/></g><g><path class="cls-1" d="m33.03,105.64h-4.21V37.9h4.21v67.74ZM8.77,12.27v149h20.05v-29.8h4.21v29.8h20.05V12.27H8.77Z"/><path class="cls-1" d="m101.88,48.23v-25.83h-24.4v-10.13h-20.19v149h19.5c14.78,0,25.09-12.52,25.09-28.61V52.87h-20.19v79.79c0,1.39-.52,2.78-1.2,2.78h-3.01V48.23h24.4Z"/></g><g><path class="cls-1" d="m33,105.62h-4.21V37.88h4.21v67.74ZM8.74,12.25v149h20.05v-29.8h4.21v29.8h20.05V12.25H8.74Z"/><path class="cls-1" d="m101.84,48.21v-25.83h-24.4v-10.13h-20.19v149h19.5c14.78,0,25.09-12.52,25.09-28.61V52.85h-20.19v79.79c0,1.39-.52,2.78-1.2,2.78h-3.01V48.21h24.4Z"/></g><g><path class="cls-1" d="m32.97,105.6h-4.21V37.85h4.21v67.74ZM8.71,12.23v149h20.05v-29.8h4.21v29.8h20.05V12.23H8.71Z"/><path class="cls-1" d="m101.81,48.18v-25.83h-24.4v-10.13h-20.19v149h19.5c14.78,0,25.09-12.52,25.09-28.61V52.82h-20.19v79.79c0,1.39-.52,2.78-1.2,2.78h-3.01V48.18h24.4Z"/></g><g><path class="cls-1" d="m32.93,105.57h-4.21V37.83h4.21v67.74ZM8.67,12.2v149h20.05v-29.8h4.21v29.8h20.05V12.2H8.67Z"/><path class="cls-1" d="m101.78,48.16v-25.83h-24.4v-10.13h-20.19v149h19.5c14.78,0,25.09-12.52,25.09-28.61V52.8h-20.19v79.79c0,1.39-.52,2.78-1.2,2.78h-3.01V48.16h24.4Z"/></g><g><path class="cls-1" d="m32.9,105.55h-4.21V37.81h4.21v67.74ZM8.64,12.18v149h20.05v-29.8h4.21v29.8h20.05V12.18H8.64Z"/><path class="cls-1" d="m101.75,48.14v-25.83h-24.4v-10.13h-20.19v149h19.5c14.78,0,25.09-12.52,25.09-28.61V52.78h-20.19v79.79c0,1.39-.52,2.78-1.2,2.78h-3.01V48.14h24.4Z"/></g><g><path class="cls-1" d="m32.87,105.53h-4.21V37.78h4.21v67.74ZM8.61,12.16v149h20.05v-29.8h4.21v29.8h20.05V12.16H8.61Z"/><path class="cls-1" d="m101.71,48.11v-25.83h-24.4v-10.13h-20.19v149h19.5c14.78,0,25.09-12.52,25.09-28.61V52.75h-20.19v79.79c0,1.39-.52,2.78-1.2,2.78h-3.01V48.11h24.4Z"/></g><g><path class="cls-1" d="m32.84,105.5h-4.21V37.76h4.21v67.74ZM8.58,12.13v149h20.05v-29.8h4.21v29.8h20.05V12.13H8.58Z"/><path class="cls-1" d="m101.68,48.09v-25.83h-24.4v-10.13h-20.19v149h19.5c14.78,0,25.09-12.52,25.09-28.61V52.73h-20.19v79.79c0,1.39-.52,2.78-1.2,2.78h-3.01V48.09h24.4Z"/></g><g><path class="cls-1" d="m32.8,105.48h-4.21V37.73h4.21v67.74ZM8.55,12.11v149h20.05v-29.8h4.21v29.8h20.05V12.11H8.55Z"/><path class="cls-1" d="m101.65,48.07v-25.83h-24.4v-10.13h-20.19v149h19.5c14.78,0,25.09-12.52,25.09-28.61V52.7h-20.19v79.79c0,1.39-.52,2.78-1.2,2.78h-3.01V48.07h24.4Z"/></g><g><path class="cls-1" d="m32.77,105.46h-4.21V37.71h4.21v67.74ZM8.51,12.08v149h20.05v-29.8h4.21v29.8h20.05V12.08H8.51Z"/><path class="cls-1" d="m101.62,48.04v-25.83h-24.4v-10.13h-20.19v149h19.5c14.78,0,25.09-12.52,25.09-28.61V52.68h-20.19v79.79c0,1.39-.52,2.78-1.2,2.78h-3.01V48.04h24.4Z"/></g><g><path class="cls-1" d="m32.74,105.43h-4.21V37.69h4.21v67.74ZM8.48,12.06v149h20.05v-29.8h4.21v29.8h20.05V12.06H8.48Z"/><path class="cls-1" d="m101.58,48.02v-25.83h-24.4v-10.13h-20.19v149h19.5c14.78,0,25.09-12.52,25.09-28.61V52.66h-20.19v79.79c0,1.39-.52,2.78-1.2,2.78h-3.01V48.02h24.4Z"/></g><g><path class="cls-1" d="m32.71,105.41h-4.21V37.66h4.21v67.74ZM8.45,12.04v149h20.05v-29.8h4.21v29.8h20.05V12.04H8.45Z"/><path class="cls-1" d="m101.55,47.99v-25.83h-24.4v-10.13h-20.19v149h19.5c14.78,0,25.09-12.52,25.09-28.61V52.63h-20.19v79.79c0,1.39-.52,2.78-1.2,2.78h-3.01V47.99h24.4Z"/></g><g><path class="cls-1" d="m32.67,105.38h-4.21V37.64h4.21v67.74ZM8.42,12.01v149h20.05v-29.8h4.21v29.8h20.05V12.01H8.42Z"/><path class="cls-1" d="m101.52,47.97v-25.83h-24.4v-10.13h-20.19v149h19.5c14.78,0,25.09-12.52,25.09-28.61V52.61h-20.19v79.79c0,1.39-.52,2.78-1.2,2.78h-3.01V47.97h24.4Z"/></g><g><path class="cls-1" d="m32.64,105.36h-4.21V37.62h4.21v67.74ZM8.38,11.99v149h20.05v-29.8h4.21v29.8h20.05V11.99H8.38Z"/><path class="cls-1" d="m101.49,47.95v-25.83h-24.4v-10.13h-20.19v149h19.5c14.78,0,25.09-12.52,25.09-28.61V52.59h-20.19v79.79c0,1.39-.52,2.78-1.2,2.78h-3.01V47.95h24.4Z"/></g><g><path class="cls-1" d="m32.61,105.34h-4.21V37.59h4.21v67.74ZM8.35,11.97v149h20.05v-29.8h4.21v29.8h20.05V11.97H8.35Z"/><path class="cls-1" d="m101.45,47.92v-25.83h-24.4v-10.13h-20.19v149h19.5c14.78,0,25.09-12.52,25.09-28.61V52.56h-20.19v79.79c0,1.39-.52,2.78-1.2,2.78h-3.01V47.92h24.4Z"/></g><g><path class="cls-1" d="m32.58,105.31h-4.21V37.57h4.21v67.74ZM8.32,11.94v149h20.05v-29.8h4.21v29.8h20.05V11.94H8.32Z"/><path class="cls-1" d="m101.42,47.9v-25.83h-24.4v-10.13h-20.19v149h19.5c14.78,0,25.09-12.52,25.09-28.61V52.54h-20.19v79.79c0,1.39-.52,2.78-1.2,2.78h-3.01V47.9h24.4Z"/></g><g><path class="cls-1" d="m32.55,105.29h-4.21V37.55h4.21v67.74ZM8.29,11.92v149h20.05v-29.8h4.21v29.8h20.05V11.92H8.29Z"/><path class="cls-1" d="m101.39,47.88v-25.83h-24.4v-10.13h-20.19v149h19.5c14.78,0,25.09-12.52,25.09-28.61V52.52h-20.19v79.79c0,1.39-.52,2.78-1.2,2.78h-3.01V47.88h24.4Z"/></g><g><path class="cls-1" d="m32.51,105.27h-4.21V37.52h4.21v67.74ZM8.25,11.89v149h20.05v-29.8h4.21v29.8h20.05V11.89H8.25Z"/><path class="cls-1" d="m101.36,47.85v-25.83h-24.4v-10.13h-20.19v149h19.5c14.78,0,25.09-12.52,25.09-28.61V52.49h-20.19v79.79c0,1.39-.52,2.78-1.2,2.78h-3.01V47.85h24.4Z"/></g><g><path class="cls-1" d="m32.48,105.24h-4.21V37.5h4.21v67.74ZM8.22,11.87v149h20.05v-29.8h4.21v29.8h20.05V11.87H8.22Z"/><path class="cls-1" d="m101.32,47.83v-25.83h-24.4v-10.13h-20.19v149h19.5c14.78,0,25.09-12.52,25.09-28.61V52.47h-20.19v79.79c0,1.39-.52,2.78-1.2,2.78h-3.01V47.83h24.4Z"/></g><g><path class="cls-1" d="m32.45,105.22h-4.21V37.47h4.21v67.74ZM8.19,11.85v149h20.05v-29.8h4.21v29.8h20.05V11.85H8.19Z"/><path class="cls-1" d="m101.29,47.81v-25.83h-24.4v-10.13h-20.19v149h19.5c14.78,0,25.09-12.52,25.09-28.61V52.44h-20.19v79.79c0,1.39-.52,2.78-1.2,2.78h-3.01V47.81h24.4Z"/></g><g><path class="cls-1" d="m32.42,105.2h-4.21V37.45h4.21v67.74ZM8.16,11.82v149h20.05v-29.8h4.21v29.8h20.05V11.82H8.16Z"/><path class="cls-1" d="m101.26,47.78v-25.83h-24.4v-10.13h-20.19v149h19.5c14.78,0,25.09-12.52,25.09-28.61V52.42h-20.19v79.79c0,1.39-.52,2.78-1.2,2.78h-3.01V47.78h24.4Z"/></g><g><path class="cls-1" d="m32.38,105.17h-4.21V37.43h4.21v67.74ZM8.12,11.8v149h20.05v-29.8h4.21v29.8h20.05V11.8H8.12Z"/><path class="cls-1" d="m101.23,47.76v-25.83h-24.4v-10.13h-20.19v149h19.5c14.78,0,25.09-12.52,25.09-28.61V52.4h-20.19v79.79c0,1.39-.52,2.78-1.2,2.78h-3.01V47.76h24.4Z"/></g><g><path class="cls-1" d="m32.35,105.15h-4.21V37.4h4.21v67.74ZM8.09,11.78v149h20.05v-29.8h4.21v29.8h20.05V11.78H8.09Z"/><path class="cls-1" d="m101.2,47.73v-25.83h-24.4v-10.13h-20.19v149h19.5c14.78,0,25.09-12.52,25.09-28.61V52.37h-20.19v79.79c0,1.39-.52,2.78-1.2,2.78h-3.01V47.73h24.4Z"/></g><g><path class="cls-1" d="m32.32,105.12h-4.21V37.38h4.21v67.74ZM8.06,11.75v149h20.05v-29.8h4.21v29.8h20.05V11.75H8.06Z"/><path class="cls-1" d="m101.16,47.71v-25.83h-24.4v-10.13h-20.19v149h19.5c14.78,0,25.09-12.52,25.09-28.61V52.35h-20.19v79.79c0,1.39-.52,2.78-1.2,2.78h-3.01V47.71h24.4Z"/></g><g><path class="cls-1" d="m32.29,105.1h-4.21V37.36h4.21v67.74ZM8.03,11.73v149h20.05v-29.8h4.21v29.8h20.05V11.73H8.03Z"/><path class="cls-1" d="m101.13,47.69v-25.83h-24.4v-10.13h-20.19v149h19.5c14.78,0,25.09-12.52,25.09-28.61V52.33h-20.19v79.79c0,1.39-.52,2.78-1.2,2.78h-3.01V47.69h24.4Z"/></g><g><path class="cls-1" d="m32.25,105.08h-4.21V37.33h4.21v67.74ZM8,11.71v149h20.05v-29.8h4.21v29.8h20.05V11.71H8Z"/><path class="cls-1" d="m101.1,47.66v-25.83h-24.4v-10.13h-20.19v149h19.5c14.78,0,25.09-12.52,25.09-28.61V52.3h-20.19v79.79c0,1.39-.52,2.78-1.2,2.78h-3.01V47.66h24.4Z"/></g><g><path class="cls-1" d="m32.22,105.05h-4.21V37.31h4.21v67.74ZM7.96,11.68v149h20.05v-29.8h4.21v29.8h20.05V11.68H7.96Z"/><path class="cls-1" d="m101.07,47.64v-25.83h-24.4v-10.13h-20.19v149h19.5c14.78,0,25.09-12.52,25.09-28.61V52.28h-20.19v79.79c0,1.39-.52,2.78-1.2,2.78h-3.01V47.64h24.4Z"/></g><g><path class="cls-1" d="m32.19,105.03h-4.21V37.29h4.21v67.74ZM7.93,11.66v149h20.05v-29.8h4.21v29.8h20.05V11.66H7.93Z"/><path class="cls-1" d="m101.03,47.62v-25.83h-24.4v-10.13h-20.19v149h19.5c14.78,0,25.09-12.52,25.09-28.61V52.25h-20.19v79.79c0,1.39-.52,2.78-1.2,2.78h-3.01V47.62h24.4Z"/></g><g><path class="cls-1" d="m32.16,105.01h-4.21V37.26h4.21v67.74ZM7.9,11.63v149h20.05v-29.8h4.21v29.8h20.05V11.63H7.9Z"/><path class="cls-1" d="m101,47.59v-25.83h-24.4v-10.13h-20.19v149h19.5c14.78,0,25.09-12.52,25.09-28.61V52.23h-20.19v79.79c0,1.39-.52,2.78-1.2,2.78h-3.01V47.59h24.4Z"/></g><g><path class="cls-1" d="m32.12,104.98h-4.21V37.24h4.21v67.74ZM7.87,11.61v149h20.05v-29.8h4.21v29.8h20.05V11.61H7.87Z"/><path class="cls-1" d="m100.97,47.57v-25.83h-24.4v-10.13h-20.19v149h19.5c14.78,0,25.09-12.52,25.09-28.61V52.21h-20.19v79.79c0,1.39-.52,2.78-1.2,2.78h-3.01V47.57h24.4Z"/></g><g><path class="cls-1" d="m32.09,104.96h-4.21V37.21h4.21v67.74ZM7.83,11.59v149h20.05v-29.8h4.21v29.8h20.05V11.59H7.83Z"/><path class="cls-1" d="m100.94,47.54v-25.83h-24.4v-10.13h-20.19v149h19.5c14.78,0,25.09-12.52,25.09-28.61V52.18h-20.19v79.79c0,1.39-.52,2.78-1.2,2.78h-3.01V47.54h24.4Z"/></g><g><path class="cls-1" d="m32.06,104.93h-4.21V37.19h4.21v67.74ZM7.8,11.56v149h20.05v-29.8h4.21v29.8h20.05V11.56H7.8Z"/><path class="cls-1" d="m100.9,47.52v-25.83h-24.4v-10.13h-20.19v149h19.5c14.78,0,25.09-12.52,25.09-28.61V52.16h-20.19v79.79c0,1.39-.52,2.78-1.2,2.78h-3.01V47.52h24.4Z"/></g><g><path class="cls-1" d="m32.03,104.91h-4.21V37.17h4.21v67.74ZM7.77,11.54v149h20.05v-29.8h4.21v29.8h20.05V11.54H7.77Z"/><path class="cls-1" d="m100.87,47.5v-25.83h-24.4v-10.13h-20.19v149h19.5c14.78,0,25.09-12.52,25.09-28.61V52.14h-20.19v79.79c0,1.39-.52,2.78-1.2,2.78h-3.01V47.5h24.4Z"/></g><g><path class="cls-1" d="m32,104.89h-4.21V37.14h4.21v67.74ZM7.74,11.52v149h20.05v-29.8h4.21v29.8h20.05V11.52H7.74Z"/><path class="cls-1" d="m100.84,47.47v-25.83h-24.4v-10.13h-20.19v149h19.5c14.78,0,25.09-12.52,25.09-28.61V52.11h-20.19v79.79c0,1.39-.52,2.78-1.2,2.78h-3.01V47.47h24.4Z"/></g><g><path class="cls-1" d="m31.96,104.86h-4.21V37.12h4.21v67.74ZM7.7,11.49v149h20.05v-29.8h4.21v29.8h20.05V11.49H7.7Z"/><path class="cls-1" d="m100.81,47.45v-25.83h-24.4v-10.13h-20.19v149h19.5c14.78,0,25.09-12.52,25.09-28.61V52.09h-20.19v79.79c0,1.39-.52,2.78-1.2,2.78h-3.01V47.45h24.4Z"/></g><g><path class="cls-1" d="m31.93,104.84h-4.21V37.1h4.21v67.74ZM7.67,11.47v149h20.05v-29.8h4.21v29.8h20.05V11.47H7.67Z"/><path class="cls-1" d="m100.77,47.43v-25.83h-24.4v-10.13h-20.19v149h19.5c14.78,0,25.09-12.52,25.09-28.61V52.07h-20.19v79.79c0,1.39-.52,2.78-1.2,2.78h-3.01V47.43h24.4Z"/></g><g><path class="cls-1" d="m31.9,104.82h-4.21V37.07h4.21v67.74ZM7.64,11.44v149h20.05v-29.8h4.21v29.8h20.05V11.44H7.64Z"/><path class="cls-1" d="m100.74,47.4v-25.83h-24.4v-10.13h-20.19v149h19.5c14.78,0,25.09-12.52,25.09-28.61V52.04h-20.19v79.79c0,1.39-.52,2.78-1.2,2.78h-3.01V47.4h24.4Z"/></g><g><path class="cls-1" d="m31.87,104.79h-4.21V37.05h4.21v67.74ZM7.61,11.42v149h20.05v-29.8h4.21v29.8h20.05V11.42H7.61Z"/><path class="cls-1" d="m100.71,47.38v-25.83h-24.4v-10.13h-20.19v149h19.5c14.78,0,25.09-12.52,25.09-28.61V52.02h-20.19v79.79c0,1.39-.52,2.78-1.2,2.78h-3.01V47.38h24.4Z"/></g><g><path class="cls-1" d="m31.83,104.77h-4.21V37.02h4.21v67.74ZM7.57,11.4v149h20.05v-29.8h4.21v29.8h20.05V11.4H7.57Z"/><path class="cls-1" d="m100.68,47.36v-25.83h-24.4v-10.13h-20.19v149h19.5c14.78,0,25.09-12.52,25.09-28.61V51.99h-20.19v79.79c0,1.39-.52,2.78-1.2,2.78h-3.01V47.36h24.4Z"/></g><g><path class="cls-1" d="m31.8,104.75h-4.21V37h4.21v67.74ZM7.54,11.37v149h20.05v-29.8h4.21v29.8h20.05V11.37H7.54Z"/><path class="cls-1" d="m100.65,47.33v-25.83h-24.4v-10.13h-20.19v149h19.5c14.78,0,25.09-12.52,25.09-28.61V51.97h-20.19v79.79c0,1.39-.52,2.78-1.2,2.78h-3.01V47.33h24.4Z"/></g><g><path class="cls-1" d="m31.77,104.72h-4.21V36.98h4.21v67.74ZM7.51,11.35v149h20.05v-29.8h4.21v29.8h20.05V11.35H7.51Z"/><path class="cls-1" d="m100.61,47.31v-25.83h-24.4v-10.13h-20.19v149h19.5c14.78,0,25.09-12.52,25.09-28.61V51.95h-20.19v79.79c0,1.39-.52,2.78-1.2,2.78h-3.01V47.31h24.4Z"/></g><g><path class="cls-1" d="m31.74,104.7h-4.21V36.95h4.21v67.74ZM7.48,11.33v149h20.05v-29.8h4.21v29.8h20.05V11.33H7.48Z"/><path class="cls-1" d="m100.58,47.28v-25.83h-24.4v-10.13h-20.19v149h19.5c14.78,0,25.09-12.52,25.09-28.61V51.92h-20.19v79.79c0,1.39-.52,2.78-1.2,2.78h-3.01V47.28h24.4Z"/></g><g><path class="cls-1" d="m31.7,104.67h-4.21V36.93h4.21v67.74ZM7.45,11.3v149h20.05v-29.8h4.21v29.8h20.05V11.3H7.45Z"/><path class="cls-1" d="m100.55,47.26v-25.83h-24.4v-10.13h-20.19v149h19.5c14.78,0,25.09-12.52,25.09-28.61V51.9h-20.19v79.79c0,1.39-.52,2.78-1.2,2.78h-3.01V47.26h24.4Z"/></g><g><path class="cls-1" d="m31.67,104.65h-4.21V36.91h4.21v67.74ZM7.41,11.28v149h20.05v-29.8h4.21v29.8h20.05V11.28H7.41Z"/><path class="cls-1" d="m100.52,47.24v-25.83h-24.4v-10.13h-20.19v149h19.5c14.78,0,25.09-12.52,25.09-28.61V51.88h-20.19v79.79c0,1.39-.52,2.78-1.2,2.78h-3.01V47.24h24.4Z"/></g><g><path class="cls-1" d="m31.64,104.63h-4.21V36.88h4.21v67.74ZM7.38,11.26v149h20.05v-29.8h4.21v29.8h20.05V11.26H7.38Z"/><path class="cls-1" d="m100.48,47.21v-25.83h-24.4v-10.13h-20.19v149h19.5c14.78,0,25.09-12.52,25.09-28.61V51.85h-20.19v79.79c0,1.39-.52,2.78-1.2,2.78h-3.01V47.21h24.4Z"/></g><g><path class="cls-1" d="m31.61,104.6h-4.21V36.86h4.21v67.74ZM7.35,11.23v149h20.05v-29.8h4.21v29.8h20.05V11.23H7.35Z"/><path class="cls-1" d="m100.45,47.19v-25.83h-24.4v-10.13h-20.19v149h19.5c14.78,0,25.09-12.52,25.09-28.61V51.83h-20.19v79.79c0,1.39-.52,2.78-1.2,2.78h-3.01V47.19h24.4Z"/></g><g><path class="cls-1" d="m31.57,104.58h-4.21V36.84h4.21v67.74ZM7.32,11.21v149h20.05v-29.8h4.21v29.8h20.05V11.21H7.32Z"/><path class="cls-1" d="m100.42,47.17v-25.83h-24.4v-10.13h-20.19v149h19.5c14.78,0,25.09-12.52,25.09-28.61V51.81h-20.19v79.79c0,1.39-.52,2.78-1.2,2.78h-3.01V47.17h24.4Z"/></g><g><path class="cls-1" d="m31.54,104.56h-4.21V36.81h4.21v67.74ZM7.28,11.18v149h20.05v-29.8h4.21v29.8h20.05V11.18H7.28Z"/><path class="cls-1" d="m100.39,47.14v-25.83h-24.4v-10.13h-20.19v149h19.5c14.78,0,25.09-12.52,25.09-28.61V51.78h-20.19v79.79c0,1.39-.52,2.78-1.2,2.78h-3.01V47.14h24.4Z"/></g><g><path class="cls-1" d="m31.51,104.53h-4.21V36.79h4.21v67.74ZM7.25,11.16v149h20.05v-29.8h4.21v29.8h20.05V11.16H7.25Z"/><path class="cls-1" d="m100.35,47.12v-25.83h-24.4v-10.13h-20.19v149h19.5c14.78,0,25.09-12.52,25.09-28.61V51.76h-20.19v79.79c0,1.39-.52,2.78-1.2,2.78h-3.01V47.12h24.4Z"/></g></g><g><path class="cls-3" d="m8.98,12.44v149h20.05v-29.8h4.21v29.8h20.05V12.44H8.98Zm24.26,93.37h-4.21V38.07h4.21v67.74Z"/><path class="cls-2" d="m102.08,48.4v-25.83h-24.4v-10.13h-20.19v149h19.5c14.78,0,25.09-12.52,25.09-28.61V53.04h-20.19v79.79c0,1.39-.52,2.78-1.2,2.78h-3.01V48.4h24.4Z"/></g></svg>