<?xml version="1.0" encoding="UTF-8"?><svg id="Calque_1" xmlns="http://www.w3.org/2000/svg" viewBox="0 0 222.97 198.87"><defs><style>.cls-1{fill:#383838;}</style></defs><circle class="cls-1" cx="111.49" cy="99.44" r="17.61" transform="translate(-18.6 26) rotate(-12.28)"/><path class="cls-1" d="m201.41,82.21c-7.42-6.66-18.75-11.87-32.6-15.81,2.33-9.23,3.59-17.81,3.61-25.32,0-6.08-.79-11.52-2.61-16.19-1.8-4.65-4.76-8.59-8.94-10.99-3.03-1.76-6.48-2.56-10.01-2.56-11.37.14-23.81,7.5-36.76,19.36-.87.81-1.75,1.8-2.62,2.65-.87-.85-1.75-1.85-2.62-2.65-12.94-11.85-25.38-19.22-36.76-19.36-3.53,0-6.98.8-10.01,2.56-4.18,2.4-7.14,6.34-8.94,10.99-1.82,4.67-2.61,10.11-2.61,16.19.02,7.5,1.27,16.06,3.59,25.27-3.86,1.09-7.58,2.26-11,3.57-8.89,3.4-16.23,7.46-21.59,12.29-5.32,4.78-8.84,10.64-8.84,17.23,0,6.58,3.52,12.45,8.84,17.23,7.42,6.66,18.75,11.87,32.6,15.81-2.33,9.23-3.59,17.81-3.61,25.32,0,6.08.79,11.52,2.61,16.19,1.8,4.65,4.76,8.59,8.94,10.99,3.03,1.76,6.48,2.56,10.01,2.56,11.37-.14,23.81-7.5,36.76-19.36.87-.81,1.75-1.8,2.62-2.65.87.85,1.75,1.85,2.62,2.65,12.94,11.85,25.38,19.22,36.76,19.36,3.53,0,6.98-.8,10.01-2.56,4.18-2.4,7.14-6.34,8.94-10.99,1.82-4.67,2.61-10.11,2.61-16.19-.02-7.5-1.27-16.06-3.59-25.27,3.86-1.09,7.58-2.26,11-3.57,8.89-3.4,16.23-7.46,21.59-12.29,5.32-4.78,8.84-10.65,8.84-17.23,0-6.58-3.52-12.45-8.84-17.23Zm-54.97,37.41c1.93-3.36,3.74-6.71,5.47-10.04,2.42,5.75,4.5,11.36,6.19,16.74-5.59,1.25-11.48,2.33-17.77,3.12,2.06-3.22,4.14-6.4,6.11-9.81Zm-7.44-4.29c-3.07,5.32-6.28,10.34-9.56,15.14-5.83.44-11.78.75-17.96.74-6.13,0-12.11-.24-17.91-.67-3.29-4.83-6.53-9.87-9.61-15.22-3.08-5.33-5.8-10.63-8.33-15.89,2.53-5.26,5.25-10.56,8.33-15.89,3.07-5.32,6.28-10.34,9.56-15.14,5.83-.44,11.78-.75,17.96-.74,6.13,0,12.11.24,17.91.67,3.3,4.83,6.53,9.87,9.61,15.22,3.08,5.33,5.8,10.63,8.33,15.89-2.53,5.26-5.25,10.56-8.33,15.89Zm-16.09,24.19c-3.78,4.99-7.6,9.63-11.43,13.79-3.84-4.18-7.67-8.83-11.46-13.84,3.78.17,7.57.33,11.46.33,3.87,0,7.67-.11,11.43-.28Zm-40.27-10.07c-6.28-.79-12.22-1.83-17.8-3.07,1.69-5.4,3.78-11.03,6.21-16.8,1.73,3.34,3.54,6.69,5.47,10.04,1.97,3.42,4.05,6.6,6.12,9.83Zm-11.59-40.15c-2.42-5.75-4.5-11.36-6.19-16.74,5.59-1.25,11.48-2.33,17.77-3.12-2.06,3.22-4.14,6.4-6.11,9.81-1.93,3.36-3.74,6.71-5.47,10.04Zm29-29.94c3.78-4.99,7.6-9.63,11.43-13.79,3.84,4.18,7.67,8.83,11.46,13.84-3.78-.17-7.57-.33-11.46-.33-3.87,0-7.67.11-11.43.28Zm46.38,19.9c-1.97-3.42-4.05-6.6-6.12-9.83,6.28.79,12.22,1.83,17.8,3.07-1.69,5.4-3.78,11.03-6.21,16.8-1.73-3.34-3.54-6.69-5.47-10.04Zm-26.51-42.25c12.05-11.25,23.62-17.21,30.93-17.07,2.27,0,4.11.48,5.72,1.41,2.18,1.27,3.92,3.36,5.23,6.68,1.3,3.3,2.03,7.75,2.02,13.06.02,6.61-1.14,14.52-3.35,23.21-8.14-1.85-16.98-3.23-26.38-4.1-5.41-7.64-10.97-14.65-16.59-20.74.8-.78,1.62-1.71,2.42-2.45Zm-60.79,4.07c0-5.32.73-9.77,2.02-13.06,1.31-3.32,3.05-5.41,5.23-6.68,1.61-.92,3.44-1.4,5.72-1.41,7.3-.14,18.88,5.82,30.93,17.07.8.74,1.62,1.67,2.42,2.45-5.61,6.07-11.15,13.06-16.54,20.67-9.41.86-18.28,2.25-26.44,4.1-2.2-8.67-3.35-16.56-3.33-23.15Zm-12.93,79.85c-8.21-3.13-14.7-6.84-18.9-10.64-4.24-3.85-6.01-7.48-6.01-10.85,0-3.38,1.77-7,6.01-10.85,5.81-5.29,16.15-10.24,29.21-13.94,2.47,7.95,5.66,16.26,9.59,24.79-3.94,8.55-7.13,16.87-9.6,24.83-3.64-1.03-7.13-2.13-10.29-3.34Zm56.82,40.94c-12.05,11.25-23.63,17.21-30.93,17.07-2.27,0-4.11-.48-5.72-1.41-2.18-1.27-3.92-3.36-5.23-6.68-1.3-3.3-2.03-7.75-2.02-13.06-.02-6.61,1.14-14.52,3.35-23.21,8.14,1.85,16.98,3.23,26.38,4.1,5.41,7.64,10.96,14.65,16.59,20.74-.8.78-1.62,1.71-2.42,2.45Zm60.79-4.07c0,5.32-.73,9.77-2.02,13.06-1.31,3.32-3.05,5.41-5.23,6.68-1.61.92-3.44,1.4-5.72,1.41-7.3.14-18.88-5.82-30.93-17.07-.8-.74-1.62-1.67-2.42-2.45,5.61-6.07,11.15-13.06,16.54-20.67,9.41-.86,18.28-2.25,26.44-4.1,2.2,8.67,3.35,16.56,3.33,23.15Zm31.83-47.5c-5.81,5.29-16.15,10.24-29.21,13.94-2.47-7.95-5.66-16.26-9.59-24.79,3.94-8.55,7.13-16.87,9.6-24.83,3.64,1.03,7.13,2.13,10.29,3.34,8.21,3.13,14.7,6.84,18.9,10.64,4.24,3.85,6.01,7.48,6.01,10.85,0,3.38-1.77,7-6.01,10.85Z"/></svg>